<svg width="129" height="25" viewBox="0 0 129 25" fill="none" xmlns="http://www.w3.org/2000/svg">
<path d="M0 0.496338H4.7999V9.76573H14.1018V0.496338H18.9017V24.1654H14.1018V13.7388H4.7999V24.1654H0V0.496338Z" fill="white"/>
<path d="M22.5168 16.5514V0.496338H27.3167V16.5514C27.3167 19.0009 28.5423 20.723 31.752 20.723C34.7973 20.723 36.2215 18.9358 36.2215 16.4862V0.496338H41.0214V16.5514C41.0214 21.6166 37.9093 24.5626 31.8513 24.5626C25.7932 24.5626 22.5151 21.6817 22.5151 16.5514H22.5168Z" fill="white"/>
<path d="M44.6363 0.496338H62.0488V4.53451H49.4362V9.83084H60.4927V13.7697H49.4362V20.1582H62.148V24.1638H44.6363V0.496338Z" fill="white"/>
<path d="M65.6556 0.463867H76.2483C78.7972 0.463867 80.7503 1.09376 81.9743 2.18591C83.265 3.34478 83.8607 4.76897 83.8607 6.62122C83.8607 9.03826 82.3715 10.5927 80.153 11.3544V11.4537C82.7686 12.2154 84.5557 14.3997 84.5557 17.3132C84.5557 19.53 83.8607 21.0535 82.4707 22.2449C81.1133 23.4363 79.0283 24.1313 76.512 24.1313H65.654V0.463867H65.6556ZM75.6526 9.99694C77.7376 9.99694 79.1618 9.00408 79.1618 7.1502C79.1618 5.39561 77.871 4.3702 75.7519 4.3702H70.4555V9.99694H75.6526ZM70.4555 20.1599H75.983C78.2991 20.1599 79.6907 18.8692 79.6907 16.9486C79.6907 14.6976 78.0354 13.5387 75.8511 13.5387H70.4555V20.1599Z" fill="white"/>
<path d="M115.758 11.7515L108.674 0.463867H114.07L118.44 7.94611H118.507L122.877 0.463867H128.106L121.155 11.719L129 24.133H123.406L118.573 15.4935H118.507L113.607 24.133H108.113L115.759 11.7532L115.758 11.7515Z" fill="white"/>
<path d="M97.9691 0C90.9849 0 86.548 5.26378 86.548 12.3473C86.548 19.4307 90.9833 24.6603 97.9691 24.6603C104.955 24.6603 109.356 19.4307 109.356 12.3473C109.356 5.26378 104.953 0 97.9691 0ZM105.902 16.9697L100.583 16.9453L97.93 21.545L95.2965 16.9453H89.9628L92.6207 12.3538L89.9595 7.71825H95.2819L97.9707 3.11692L100.637 7.74267L105.943 7.76708L103.257 12.3798L105.899 16.9714L105.902 16.9697Z" fill="white"/>
</svg>
